<mxfile host="app.diagrams.net" modified="2022-02-16T21:55:15.186Z" agent="5.0 (Windows NT 10.0; Win64; x64) AppleWebKit/537.36 (KHTML, like Gecko) Chrome/98.0.4758.102 Safari/537.36" etag="nwszqZkn2ZUxZ1RgwEWm" version="16.5.6" type="github">
  <diagram id="7iTIZVN0DzwUxNRBZhhm" name="Page-1">
    <mxGraphModel dx="1609" dy="468" grid="1" gridSize="10" guides="1" tooltips="1" connect="1" arrows="1" fold="1" page="1" pageScale="1" pageWidth="827" pageHeight="1169" math="0" shadow="0">
      <root>
        <mxCell id="0" />
        <mxCell id="1" parent="0" />
        <mxCell id="FQkFN-PBE5myPGdjroCt-23" style="edgeStyle=orthogonalEdgeStyle;rounded=0;orthogonalLoop=1;jettySize=auto;html=1;exitX=0;exitY=0.5;exitDx=0;exitDy=0;" edge="1" parent="1" source="FQkFN-PBE5myPGdjroCt-18" target="FQkFN-PBE5myPGdjroCt-19">
          <mxGeometry relative="1" as="geometry" />
        </mxCell>
        <mxCell id="FQkFN-PBE5myPGdjroCt-18" value="" style="swimlane;startSize=0;" vertex="1" parent="1">
          <mxGeometry x="620" y="65" width="200" height="320" as="geometry" />
        </mxCell>
        <mxCell id="FQkFN-PBE5myPGdjroCt-2" value="config-server" style="shape=image;html=1;verticalAlign=top;verticalLabelPosition=bottom;labelBackgroundColor=#ffffff;imageAspect=0;aspect=fixed;image=https://cdn2.iconfinder.com/data/icons/gnomeicontheme/48x48/apps/gnome-server-config.png" vertex="1" parent="FQkFN-PBE5myPGdjroCt-18">
          <mxGeometry x="68.5" y="30" width="70" height="70" as="geometry" />
        </mxCell>
        <mxCell id="FQkFN-PBE5myPGdjroCt-3" value="service-client" style="sketch=0;outlineConnect=0;fontColor=#232F3E;gradientColor=none;fillColor=#D45B07;strokeColor=none;dashed=0;verticalLabelPosition=bottom;verticalAlign=top;align=center;html=1;fontSize=12;fontStyle=0;aspect=fixed;pointerEvents=1;shape=mxgraph.aws4.registry;" vertex="1" parent="FQkFN-PBE5myPGdjroCt-18">
          <mxGeometry x="83.5" y="150" width="48" height="48" as="geometry" />
        </mxCell>
        <mxCell id="FQkFN-PBE5myPGdjroCt-6" value="" style="verticalLabelPosition=bottom;dashed=0;shadow=0;html=1;align=center;verticalAlign=top;shape=mxgraph.cabinets.cb_1p;" vertex="1" parent="FQkFN-PBE5myPGdjroCt-18">
          <mxGeometry x="62.5" y="250" width="9" height="50" as="geometry" />
        </mxCell>
        <mxCell id="FQkFN-PBE5myPGdjroCt-7" value="" style="verticalLabelPosition=bottom;dashed=0;shadow=0;html=1;align=center;verticalAlign=top;shape=mxgraph.cabinets.cb_1p;" vertex="1" parent="FQkFN-PBE5myPGdjroCt-18">
          <mxGeometry x="71.5" y="250" width="9" height="50" as="geometry" />
        </mxCell>
        <mxCell id="FQkFN-PBE5myPGdjroCt-8" value="" style="verticalLabelPosition=bottom;dashed=0;shadow=0;html=1;align=center;verticalAlign=top;shape=mxgraph.cabinets.cb_1p;" vertex="1" parent="FQkFN-PBE5myPGdjroCt-18">
          <mxGeometry x="80.5" y="250" width="9" height="50" as="geometry" />
        </mxCell>
        <mxCell id="FQkFN-PBE5myPGdjroCt-9" value="" style="verticalLabelPosition=bottom;dashed=0;shadow=0;html=1;align=center;verticalAlign=top;shape=mxgraph.cabinets.cb_1p;" vertex="1" parent="FQkFN-PBE5myPGdjroCt-18">
          <mxGeometry x="89.5" y="250" width="9" height="50" as="geometry" />
        </mxCell>
        <mxCell id="FQkFN-PBE5myPGdjroCt-10" value="" style="verticalLabelPosition=bottom;dashed=0;shadow=0;html=1;align=center;verticalAlign=top;shape=mxgraph.cabinets.cb_1p;" vertex="1" parent="FQkFN-PBE5myPGdjroCt-18">
          <mxGeometry x="98.5" y="250" width="9" height="50" as="geometry" />
        </mxCell>
        <mxCell id="FQkFN-PBE5myPGdjroCt-11" value="" style="verticalLabelPosition=bottom;dashed=0;shadow=0;html=1;align=center;verticalAlign=top;shape=mxgraph.cabinets.cb_1p;" vertex="1" parent="FQkFN-PBE5myPGdjroCt-18">
          <mxGeometry x="107.5" y="250" width="9" height="50" as="geometry" />
        </mxCell>
        <mxCell id="FQkFN-PBE5myPGdjroCt-12" value="ciruit-breaker" style="verticalLabelPosition=bottom;dashed=0;shadow=0;html=1;align=center;verticalAlign=top;shape=mxgraph.cabinets.cb_1p;" vertex="1" parent="FQkFN-PBE5myPGdjroCt-18">
          <mxGeometry x="116.5" y="250" width="9" height="50" as="geometry" />
        </mxCell>
        <mxCell id="FQkFN-PBE5myPGdjroCt-13" value="" style="verticalLabelPosition=bottom;dashed=0;shadow=0;html=1;align=center;verticalAlign=top;shape=mxgraph.cabinets.cb_1p;" vertex="1" parent="FQkFN-PBE5myPGdjroCt-18">
          <mxGeometry x="125.5" y="250" width="9" height="50" as="geometry" />
        </mxCell>
        <mxCell id="FQkFN-PBE5myPGdjroCt-14" value="" style="verticalLabelPosition=bottom;dashed=0;shadow=0;html=1;align=center;verticalAlign=top;shape=mxgraph.cabinets.cb_1p;" vertex="1" parent="FQkFN-PBE5myPGdjroCt-18">
          <mxGeometry x="134.5" y="250" width="9" height="50" as="geometry" />
        </mxCell>
        <mxCell id="FQkFN-PBE5myPGdjroCt-15" value="" style="verticalLabelPosition=bottom;dashed=0;shadow=0;html=1;align=center;verticalAlign=top;shape=mxgraph.cabinets.cb_1p;" vertex="1" parent="FQkFN-PBE5myPGdjroCt-18">
          <mxGeometry x="143.5" y="250" width="9" height="50" as="geometry" />
        </mxCell>
        <mxCell id="FQkFN-PBE5myPGdjroCt-22" style="edgeStyle=orthogonalEdgeStyle;rounded=0;orthogonalLoop=1;jettySize=auto;html=1;entryX=0.5;entryY=0;entryDx=0;entryDy=0;" edge="1" parent="1" source="FQkFN-PBE5myPGdjroCt-19" target="FQkFN-PBE5myPGdjroCt-21">
          <mxGeometry relative="1" as="geometry" />
        </mxCell>
        <mxCell id="FQkFN-PBE5myPGdjroCt-24" style="edgeStyle=orthogonalEdgeStyle;rounded=0;orthogonalLoop=1;jettySize=auto;html=1;entryX=1;entryY=0.5;entryDx=0;entryDy=0;" edge="1" parent="1" source="FQkFN-PBE5myPGdjroCt-19" target="FQkFN-PBE5myPGdjroCt-20">
          <mxGeometry relative="1" as="geometry" />
        </mxCell>
        <mxCell id="FQkFN-PBE5myPGdjroCt-19" value="" style="swimlane;startSize=0;" vertex="1" parent="1">
          <mxGeometry x="299" y="20" width="230" height="410" as="geometry" />
        </mxCell>
        <mxCell id="TIBrS6brGKW57HmacOK9-1" value="client-microservice" style="aspect=fixed;perimeter=ellipsePerimeter;html=1;align=center;shadow=0;dashed=0;fontColor=#4277BB;labelBackgroundColor=#ffffff;fontSize=12;spacingTop=3;image;image=img/lib/ibm/infrastructure/microservices_mesh.svg;" parent="FQkFN-PBE5myPGdjroCt-19" vertex="1">
          <mxGeometry x="75" y="20" width="80" height="80" as="geometry" />
        </mxCell>
        <mxCell id="TIBrS6brGKW57HmacOK9-2" value="product-microservice&lt;br&gt;" style="aspect=fixed;perimeter=ellipsePerimeter;html=1;align=center;shadow=0;dashed=0;fontColor=#4277BB;labelBackgroundColor=#ffffff;fontSize=12;spacingTop=3;image;image=img/lib/ibm/infrastructure/microservices_mesh.svg;" parent="FQkFN-PBE5myPGdjroCt-19" vertex="1">
          <mxGeometry x="75" y="160" width="80" height="80" as="geometry" />
        </mxCell>
        <mxCell id="TIBrS6brGKW57HmacOK9-3" value="transaction-microservice" style="aspect=fixed;perimeter=ellipsePerimeter;html=1;align=center;shadow=0;dashed=0;fontColor=#4277BB;labelBackgroundColor=#ffffff;fontSize=12;spacingTop=3;image;image=img/lib/ibm/infrastructure/microservices_mesh.svg;" parent="FQkFN-PBE5myPGdjroCt-19" vertex="1">
          <mxGeometry x="75" y="290" width="80" height="80" as="geometry" />
        </mxCell>
        <mxCell id="FQkFN-PBE5myPGdjroCt-31" style="edgeStyle=orthogonalEdgeStyle;rounded=0;orthogonalLoop=1;jettySize=auto;html=1;exitX=0;exitY=0.5;exitDx=0;exitDy=0;" edge="1" parent="1" source="FQkFN-PBE5myPGdjroCt-20" target="FQkFN-PBE5myPGdjroCt-25">
          <mxGeometry relative="1" as="geometry" />
        </mxCell>
        <mxCell id="FQkFN-PBE5myPGdjroCt-32" style="edgeStyle=orthogonalEdgeStyle;rounded=0;orthogonalLoop=1;jettySize=auto;html=1;exitX=0;exitY=0.5;exitDx=0;exitDy=0;" edge="1" parent="1" source="FQkFN-PBE5myPGdjroCt-20" target="FQkFN-PBE5myPGdjroCt-30">
          <mxGeometry relative="1" as="geometry" />
        </mxCell>
        <mxCell id="FQkFN-PBE5myPGdjroCt-20" value="" style="swimlane;startSize=0;" vertex="1" parent="1">
          <mxGeometry x="20" y="125" width="200" height="200" as="geometry" />
        </mxCell>
        <mxCell id="FQkFN-PBE5myPGdjroCt-17" value="API Gateway" style="outlineConnect=0;dashed=0;verticalLabelPosition=bottom;verticalAlign=top;align=center;html=1;shape=mxgraph.aws3.api_gateway;fillColor=#D9A741;gradientColor=none;" vertex="1" parent="FQkFN-PBE5myPGdjroCt-20">
          <mxGeometry x="50" y="37.5" width="76.5" height="93" as="geometry" />
        </mxCell>
        <mxCell id="FQkFN-PBE5myPGdjroCt-21" value="Mongo DB" style="image;html=1;image=img/lib/clip_art/computers/Database_128x128.png" vertex="1" parent="1">
          <mxGeometry x="374" y="530" width="80" height="80" as="geometry" />
        </mxCell>
        <mxCell id="FQkFN-PBE5myPGdjroCt-25" value="" style="html=1;verticalLabelPosition=bottom;align=center;labelBackgroundColor=#ffffff;verticalAlign=top;strokeWidth=2;strokeColor=#0080F0;shadow=0;dashed=0;shape=mxgraph.ios7.icons.smartphone;" vertex="1" parent="1">
          <mxGeometry x="-84" y="180" width="18" height="30" as="geometry" />
        </mxCell>
        <mxCell id="FQkFN-PBE5myPGdjroCt-30" value="" style="sketch=0;pointerEvents=1;shadow=0;dashed=0;html=1;strokeColor=none;fillColor=#434445;aspect=fixed;labelPosition=center;verticalLabelPosition=bottom;verticalAlign=top;align=center;outlineConnect=0;shape=mxgraph.vvd.web_browser;" vertex="1" parent="1">
          <mxGeometry x="-116" y="228" width="50" height="35.5" as="geometry" />
        </mxCell>
      </root>
    </mxGraphModel>
  </diagram>
</mxfile>
